# xmcd CD database file
#
# Track frame offsets:
#	150
#	28244
#	66387
#	105076
#	134582
#	163315
#	201511
#	229764
#
# Disc length: 3456 seconds
#
# Revision: 2
# Processed by: cddbd v1.5.2PL0 Copyright (c) Steve Scherf et al.
# Submitted via: CDex 1.70beta3
#
DISCID=750d7e08
DTITLE=Jazztronik - Love Tribe #2
DYEAR=2007
DGENRE=Jazz
TTITLE0=One
TTITLE1=Love Tribe (Jazz Drive Mix)
TTITLE2=Morning Sun (Dim's Disco Classic Re-Blend)
TTITLE3=Hate Won't Change Me
TTITLE4=Amor (AmigoSamba Mix)
TTITLE5=aoi asagao(12 Inch Ver.)
TTITLE6=EOL Intro (Clap Your Hands)
TTITLE7=The Principles of Love
EXTD=YEAR: 2007
EXTT0=
EXTT1=
EXTT2=
EXTT3=
EXTT4=
EXTT5=
EXTT6=
EXTT7=
PLAYORDER=
